<svg width="16" height="16" viewBox="0 0 16 16" fill="none" xmlns="http://www.w3.org/2000/svg">
<g clip-path="url(#clip0_1_68)">
<path d="M9 1C9 0.446875 8.55313 0 8 0C7.44688 0 7 0.446875 7 1V8C7 8.55313 7.44688 9 8 9C8.55313 9 9 8.55313 9 8V1ZM4.48438 3.76875C4.90938 3.41562 4.96563 2.78437 4.6125 2.35938C4.25938 1.93438 3.62812 1.87813 3.20312 2.23125C1.55313 3.60625 0.5 5.68125 0.5 8C0.5 12.1406 3.85938 15.5 8 15.5C12.1406 15.5 15.5 12.1406 15.5 8C15.5 5.68125 14.4437 3.60625 12.7937 2.23125C12.3687 1.87813 11.7375 1.9375 11.3844 2.35938C11.0312 2.78125 11.0906 3.41562 11.5125 3.76875C12.7281 4.77812 13.4969 6.3 13.4969 8C13.4969 11.0375 11.0344 13.5 7.99687 13.5C4.95937 13.5 2.49688 11.0375 2.49688 8C2.49688 6.3 3.26875 4.77812 4.48125 3.76875H4.48438Z" fill="#404040"/>
</g>
<defs>
<clipPath id="clip0_1_68">
<rect width="16" height="16" fill="white"/>
</clipPath>
</defs>
</svg>
