<svg width="35" height="47" viewBox="0 0 35 47" fill="none" xmlns="http://www.w3.org/2000/svg">
<path d="M33.5 17.8017C33.5 22.3166 31.6963 26.9306 28.6214 31.5582C25.7668 35.8542 21.8732 40.0765 17.5 44.1293C13.1268 40.0765 9.23322 35.8542 6.37865 31.5582C3.30373 26.9306 1.5 22.3166 1.5 17.8017C1.5 8.77425 8.68751 1.5 17.5 1.5C26.3125 1.5 33.5 8.77425 33.5 17.8017Z" fill="white" stroke="#3565AC" stroke-width="3"/>
<path d="M11.1719 30V11.8182H19.0199C20.3693 11.8182 21.5501 12.0845 22.5621 12.6172C23.5742 13.1499 24.3614 13.8986 24.9237 14.8633C25.4859 15.828 25.767 16.9555 25.767 18.2457C25.767 19.5478 25.477 20.6753 24.897 21.6282C24.3229 22.5811 23.515 23.315 22.4734 23.8299C21.4376 24.3448 20.2273 24.6023 18.8423 24.6023H14.1548V20.767H17.848C18.428 20.767 18.9222 20.6664 19.3306 20.4652C19.7449 20.258 20.0616 19.9651 20.2805 19.5863C20.5054 19.2075 20.6179 18.7607 20.6179 18.2457C20.6179 17.7249 20.5054 17.281 20.2805 16.9141C20.0616 16.5412 19.7449 16.2571 19.3306 16.0618C18.9222 15.8606 18.428 15.7599 17.848 15.7599H16.108V30H11.1719Z" fill="#3565AC"/>
</svg>
