<svg width="30" height="32" viewBox="0 0 30 32" fill="none" xmlns="http://www.w3.org/2000/svg">
<path d="M18.2143 19H11.7857C5.27679 19 0 23.925 0 30C0 31.1044 0.959598 32 2.14286 32H27.8571C29.0404 32 30 31.1044 30 30C30 23.925 24.7232 19 18.2143 19ZM3.28058 29C3.8096 25.0563 7.41964 22 11.7857 22H18.2143C22.5777 22 26.1897 25.0594 26.7188 29H3.28058ZM15 16C19.7337 16 23.5714 12.4181 23.5714 8C23.5714 3.58187 19.7337 0 15 0C10.2663 0 6.42857 3.58187 6.42857 8C6.42857 12.4187 10.2656 16 15 16ZM15 3C17.9538 3 20.3571 5.24312 20.3571 8C20.3571 10.7569 17.9538 13 15 13C12.0462 13 9.64286 10.7562 9.64286 8C9.64286 5.24312 12.0469 3 15 3Z" fill="#494949"/>
</svg>
