<svg width="26" height="27" viewBox="0 0 26 27" fill="none" xmlns="http://www.w3.org/2000/svg">
<path d="M21.126 10.563C21.126 12.894 20.3694 15.0472 19.0947 16.7942L25.5239 23.2285C26.1587 23.8633 26.1587 24.8942 25.5239 25.529C24.8891 26.1638 23.8582 26.1638 23.2234 25.529L16.7942 19.0947C15.0472 20.3744 12.894 21.126 10.563 21.126C4.72796 21.126 0 16.3981 0 10.563C0 4.72796 4.72796 0 10.563 0C16.3981 0 21.126 4.72796 21.126 10.563ZM10.563 17.8759C14.6003 17.8759 17.8759 14.6003 17.8759 10.563C17.8759 6.52571 14.6003 3.25016 10.563 3.25016C6.52571 3.25016 3.25016 6.52571 3.25016 10.563C3.25016 14.6003 6.52571 17.8759 10.563 17.8759Z" fill="#5E5E5E"/>
</svg>
