<svg width="16" height="14" viewBox="0 0 16 14" fill="none" xmlns="http://www.w3.org/2000/svg">
<path d="M1.82825 0.643149C1.66419 0.150961 1.13098 -0.112711 0.641725 0.0484219C0.152467 0.209555 -0.114135 0.745688 0.0469982 1.23495L1.51184 5.62655H0.937623C0.419068 5.62655 0.00012318 6.04549 0.00012318 6.56405C0.00012318 7.0826 0.419068 7.50155 0.937623 7.50155H2.13587L3.797 12.4849C3.92883 12.8805 4.30676 13.1412 4.72278 13.1265C5.1388 13.1119 5.49622 12.8219 5.59583 12.4176L6.8263 7.50155H8.17395L9.40442 12.4176C9.50403 12.8219 9.86145 13.1119 10.2775 13.1265C10.6935 13.1412 11.0714 12.8805 11.2032 12.4849L12.8644 7.50155H14.0626C14.5812 7.50155 15.0001 7.0826 15.0001 6.56405C15.0001 6.04549 14.5812 5.62655 14.0626 5.62655H13.4884L14.9532 1.23495C15.1173 0.742758 14.8507 0.212484 14.3615 0.0484219C13.8722 -0.115641 13.339 0.150961 13.1749 0.640219L11.5109 5.62655H9.6388L8.40833 0.710531C8.30579 0.294516 7.93079 0.00154694 7.50012 0.00154694C7.06946 0.00154694 6.69446 0.294516 6.59192 0.710531L5.36145 5.62655H3.48645L1.82825 0.643149ZM4.1134 7.50155H4.8927L4.55872 8.83748L4.1134 7.50155ZM7.29505 5.62655L7.50012 4.8033L7.7052 5.62655H7.29505ZM10.1075 7.50155H10.8868L10.4415 8.83748L10.1075 7.50155Z" fill="#404040"/>
</svg>
