<svg width="15" height="16" viewBox="0 0 15 16" fill="none" xmlns="http://www.w3.org/2000/svg">
<path d="M14.5595 3.05947C15.1454 2.47354 15.1454 1.52197 14.5595 0.936035C13.9735 0.350098 13.022 0.350098 12.436 0.936035L7.5001 5.87666L2.55947 0.940723C1.97354 0.354785 1.02197 0.354785 0.436035 0.940723C-0.149902 1.52666 -0.149902 2.47822 0.436035 3.06416L5.37666 8.0001L0.440723 12.9407C-0.145215 13.5267 -0.145215 14.4782 0.440723 15.0642C1.02666 15.6501 1.97822 15.6501 2.56416 15.0642L7.5001 10.1235L12.4407 15.0595C13.0267 15.6454 13.9782 15.6454 14.5642 15.0595C15.1501 14.4735 15.1501 13.522 14.5642 12.936L9.62354 8.0001L14.5595 3.05947Z" fill="black"/>
</svg>
